<svg width="113" height="112" viewBox="0 0 113 112" fill="none" xmlns="http://www.w3.org/2000/svg">
<path d="M58.4208 7.80498C71.2896 8.24318 83.338 13.3448 92.6886 22.1942C93.2551 22.7299 93.8049 23.2614 94.3378 23.7888C94.3873 23.8382 94.4153 23.898 94.4218 23.968C94.5693 25.5416 94.7055 27.1072 94.8306 28.665C95.1909 33.1375 95.3407 37.6175 95.28 42.105C95.2002 47.9178 94.6332 53.8482 93.3186 59.528C92.0241 65.1187 90.0188 70.1894 87.3028 74.7404C85.06 78.498 82.4658 81.9121 79.5202 84.9828C77.8869 86.6852 76.3133 88.2093 74.7994 89.5552C71.4403 92.539 68.4201 95.0049 65.7386 96.9528C62.6819 99.1732 59.6351 101.395 56.598 103.618C56.5862 103.627 56.572 103.631 56.5574 103.631C56.5428 103.631 56.5286 103.627 56.5168 103.618C53.7411 101.591 50.9481 99.5554 48.1378 97.5114C45.0494 95.2649 42.0417 92.8512 39.1148 90.2706C36.7273 88.165 34.6217 86.1196 32.798 84.1344C30.3275 81.4436 28.1159 78.5082 26.1634 75.3284C23.6761 71.2758 21.7688 66.8532 20.4416 62.0606C18.9982 56.8526 18.2394 51.4136 17.9692 46.011C17.7676 41.978 17.7653 37.9278 17.9622 33.8604C18.1181 30.6497 18.3617 27.3564 18.693 23.9806C18.6995 23.9152 18.7257 23.8592 18.7714 23.8126C23.9701 18.5019 29.8561 14.483 36.4296 11.7558C43.41 8.86058 50.7404 7.54364 58.4208 7.80498ZM89.127 55.4736C89.9292 50.9614 90.317 46.3708 90.352 41.8264C90.352 41.7312 90.3842 41.636 90.3842 41.5338C90.4038 36.4042 90.1672 31.2937 89.6744 26.2024C89.6699 26.1555 89.6485 26.1117 89.6142 26.0792C82.4588 19.1702 73.3938 14.6454 63.5532 13.1992C59.1927 12.5589 54.7435 12.5272 50.2056 13.104C49.2583 13.2244 48.3305 13.3751 47.4224 13.5562C38.314 15.3715 30.3415 19.5388 23.5048 26.0582C23.4647 26.0974 23.4418 26.145 23.4362 26.201C23.0703 30.1051 22.8449 33.887 22.76 37.5466C22.7245 39.08 22.7315 40.9084 22.781 43.0318C22.8874 47.6518 23.3279 52.0076 24.1026 56.0994C24.5683 58.555 25.1839 60.9354 25.9492 63.2408C28.3558 70.4928 32.6706 77.1316 38.1306 82.5776C42.808 87.2424 47.9712 91.3808 53.4046 95.2518C54.4098 95.9677 55.4383 96.7139 56.4902 97.4904C56.5313 97.5212 56.5728 97.5212 56.6148 97.4904C58.4703 96.1482 60.2963 94.8225 62.093 93.513C67.1736 89.8086 72.096 85.6576 76.4318 81.0754C77.0525 80.4193 77.6694 79.7188 78.2826 78.974C81.3738 75.2206 83.9708 71.1676 85.83 66.7646C87.3149 63.2478 88.4139 59.4841 89.127 55.4736Z" fill="#EA2127"/>
<path d="M56.5966 25.7544L58.4264 21.805C58.4516 21.7518 58.4665 21.7546 58.4712 21.8134C58.4945 22.1307 58.5011 22.4831 58.4908 22.8704C58.3583 27.9365 58.2397 32.8533 58.1352 37.6208C58.1343 37.674 58.1184 37.7221 58.0876 37.765L56.6022 39.8552C56.5974 39.8623 56.591 39.868 56.5834 39.872C56.5758 39.876 56.5673 39.8781 56.5587 39.8781C56.55 39.8781 56.5415 39.876 56.5337 39.872C56.5259 39.868 56.5192 39.8623 56.514 39.8552L55.0496 37.8056C55.004 37.7417 54.9787 37.6656 54.9768 37.5872L54.6114 21.903C54.6077 21.721 54.6441 21.7126 54.7206 21.8778L56.5168 25.7544C56.5201 25.7622 56.5257 25.7689 56.5328 25.7735C56.5399 25.7782 56.5482 25.7807 56.5567 25.7807C56.5652 25.7807 56.5735 25.7782 56.5806 25.7735C56.5877 25.7689 56.5933 25.7622 56.5966 25.7544Z" fill="#EA2127"/>
<path d="M53.9828 37.3492L49.7534 25.0964C49.7455 25.0731 49.7465 25.0477 49.756 25.0252C49.7656 25.0027 49.7831 24.9847 49.8052 24.9746L53.8064 23.1448C53.938 23.0851 54.0038 23.1276 54.0038 23.2722L54.0374 37.3408C54.0374 37.4538 54.0192 37.4566 53.9828 37.3492Z" fill="#EA2127"/>
<path d="M63.3684 25.0698L59.1684 37.24C59.1208 37.379 59.0965 37.3748 59.0956 37.2274C59.0751 32.5719 59.0863 27.8782 59.1292 23.1462C59.1301 23.092 59.1549 23.0762 59.2034 23.0986L63.3334 24.9858C63.3707 25.0026 63.3824 25.0306 63.3684 25.0698Z" fill="#EA2127"/>
<path d="M66.3028 26.3746L59.9286 38.3684C59.9265 38.3726 59.9228 38.3758 59.9184 38.3774C59.9139 38.379 59.9091 38.3787 59.9048 38.3768L59.8908 38.3698C59.8867 38.3679 59.8834 38.3646 59.8816 38.3605C59.8798 38.3563 59.8795 38.3517 59.881 38.3474L64.0054 25.4086C64.0062 25.4063 64.0074 25.4041 64.009 25.4023C64.0107 25.4004 64.0127 25.399 64.0149 25.3979C64.0171 25.3969 64.0195 25.3963 64.022 25.3962C64.0244 25.3961 64.0269 25.3965 64.0292 25.3974L66.2944 26.348C66.2968 26.349 66.299 26.3506 66.3008 26.3525C66.3026 26.3545 66.304 26.3568 66.3048 26.3593C66.3056 26.3619 66.3058 26.3646 66.3055 26.3672C66.3051 26.3698 66.3042 26.3724 66.3028 26.3746Z" fill="#EA2127"/>
<path d="M46.8764 26.3242L49.0478 25.4114C49.0547 25.4086 49.0622 25.4073 49.0697 25.4076C49.0772 25.4078 49.0846 25.4097 49.0914 25.4129C49.0982 25.4162 49.1043 25.4209 49.1093 25.4266C49.1144 25.4324 49.1182 25.4391 49.1206 25.4464L53.2338 38.3558C53.2357 38.3618 53.2353 38.3683 53.2327 38.374C53.2301 38.3797 53.2254 38.3842 53.2196 38.3867C53.2138 38.3891 53.2074 38.3893 53.2014 38.3873C53.1955 38.3852 53.1906 38.3809 53.1876 38.3754L46.8386 26.4278C46.8134 26.3793 46.826 26.3448 46.8764 26.3242Z" fill="#EA2127"/>
<path d="M46.0532 26.7022L52.37 38.9228C52.4195 39.0189 52.405 39.0296 52.3266 38.955C51.9411 38.5872 51.5328 38.1808 51.1016 37.7356C47.9945 34.5212 44.761 31.1948 41.401 27.7564C41.3943 27.7499 41.3896 27.7417 41.3873 27.7327C41.385 27.7236 41.3852 27.7141 41.3879 27.7051C41.3907 27.6961 41.3958 27.6879 41.4027 27.6814C41.4097 27.6749 41.4183 27.6703 41.4276 27.6682L45.9496 26.6532C45.9963 26.6429 46.0308 26.6592 46.0532 26.7022Z" fill="#EA2127"/>
<path d="M60.7672 38.878L67.0616 26.7008C67.0831 26.6588 67.1167 26.6429 67.1624 26.6532L71.6788 27.6654C71.6884 27.6675 71.6973 27.6721 71.7045 27.6789C71.7117 27.6856 71.717 27.6942 71.7197 27.7036C71.7224 27.7131 71.7225 27.7231 71.72 27.7327C71.7175 27.7422 71.7124 27.7509 71.7054 27.7578L60.8358 38.9284C60.7014 39.0656 60.6785 39.0488 60.7672 38.878Z" fill="#EA2127"/>
<path d="M51.2892 39.3092L38.2524 31.2466C38.2464 31.2428 38.2413 31.2378 38.2374 31.232C38.2334 31.2261 38.2307 31.2195 38.2294 31.2125C38.228 31.2056 38.2282 31.1984 38.2297 31.1915C38.2313 31.1846 38.2342 31.1781 38.2384 31.1724L40.4574 28.1246C40.4901 28.0798 40.526 28.0775 40.5652 28.1176L51.3368 39.2504C51.4777 39.396 51.4619 39.4156 51.2892 39.3092Z" fill="#EA2127"/>
<path d="M74.8386 31.2606L61.9054 39.2588C61.6767 39.3997 61.6557 39.3736 61.8424 39.1804L72.551 28.1176C72.5883 28.0784 72.6233 28.0807 72.656 28.1246L74.854 31.1486C74.8885 31.1953 74.8834 31.2326 74.8386 31.2606Z" fill="#EA2127"/>
<path d="M38.1082 34.6696L36.7768 37.4878C36.7716 37.4991 36.769 37.5115 36.7692 37.5241C36.7694 37.5367 36.7725 37.5492 36.7782 37.5606L38.7032 41.412C38.79 41.5856 38.7606 41.6085 38.615 41.4806L34.5746 37.9288C34.5642 37.9192 34.5572 37.9064 34.5546 37.8922C34.5521 37.8781 34.5542 37.8634 34.5606 37.8504L37.5062 32.2042C37.5342 32.1491 37.5748 32.137 37.628 32.1678C41.1196 34.1568 44.6117 36.1443 48.1042 38.1304C48.1182 38.1388 48.1219 38.1505 48.1154 38.1654V38.1668C48.1089 38.1799 48.0986 38.1841 48.0846 38.1794C44.8571 37.0081 41.5788 35.819 38.2496 34.6122C38.1852 34.5889 38.1381 34.608 38.1082 34.6696Z" fill="#EA2127"/>
<path d="M74.8932 34.5982C71.6079 35.7938 68.3146 36.9885 65.0134 38.1822C65.0013 38.1869 64.9924 38.1836 64.9868 38.1724V38.171C64.9793 38.1551 64.9831 38.1425 64.998 38.1332C68.5129 36.1368 72.0227 34.1399 75.5274 32.1426C75.5321 32.1399 75.5374 32.1382 75.5428 32.1376C75.5482 32.137 75.5537 32.1375 75.559 32.1391C75.5642 32.1407 75.5691 32.1433 75.5733 32.1468C75.5774 32.1503 75.5809 32.1546 75.5834 32.1594L78.543 37.8336C78.5526 37.8511 78.5559 37.8715 78.5524 37.8913C78.5488 37.9112 78.5386 37.9293 78.5234 37.9428L74.4816 41.4946C74.3584 41.6029 74.3337 41.5837 74.4074 41.4372L76.3282 37.5928C76.3478 37.5555 76.3483 37.5177 76.3296 37.4794L74.9926 34.6388C74.9711 34.5959 74.938 34.5823 74.8932 34.5982Z" fill="#EA2127"/>
<path d="M46.2632 38.4594C46.2679 38.4566 46.2716 38.4575 46.2744 38.4622L46.2968 38.4972C46.3015 38.5056 46.3001 38.5126 46.2926 38.5182L28.787 50.8242C28.6647 50.911 28.6428 50.8905 28.7212 50.7626C29.4725 49.5437 30.2113 48.3392 30.9374 47.1492C31.0774 46.921 31.2902 46.8174 31.5142 46.6928C36.4441 43.9693 41.3604 41.2249 46.2632 38.4594Z" fill="#EA2127"/>
<path d="M67.6076 38.9004C72.4404 41.6015 77.2303 44.2727 81.9772 46.914C82.0276 46.9415 82.0696 46.9816 82.099 47.0302L84.3908 50.7626C84.4692 50.8905 84.4468 50.9115 84.3236 50.8256C78.5145 46.7395 72.6793 42.6366 66.818 38.5168C66.8077 38.5103 66.8059 38.5019 66.8124 38.4916V38.4902C66.8199 38.479 66.8292 38.4767 66.8404 38.4832C67.0952 38.6176 67.3509 38.7567 67.6076 38.9004Z" fill="#EA2127"/>
<path d="M27.7034 52.5952C34.4337 47.9575 41.1089 43.351 47.729 38.7758C47.7458 38.7646 47.7603 38.7669 47.7724 38.7828H47.7738C47.7822 38.7949 47.7813 38.8057 47.771 38.815C41.709 44.3693 35.6493 49.9203 29.592 55.468C29.588 55.4718 29.5832 55.4746 29.5779 55.4763C29.5727 55.478 29.5671 55.4785 29.5617 55.4779C29.5562 55.4772 29.5509 55.4753 29.5463 55.4724C29.5416 55.4695 29.5376 55.4656 29.5346 55.461L27.6782 52.7296C27.6418 52.6764 27.6502 52.6316 27.7034 52.5952Z" fill="#EA2127"/>
<path d="M85.4436 52.7128L83.6152 55.4092C83.5741 55.4699 83.527 55.4755 83.4738 55.426C77.4248 49.8829 71.3876 44.3525 65.362 38.8346C65.3508 38.8243 65.3503 38.8127 65.3606 38.7996V38.7982C65.3708 38.7851 65.383 38.7837 65.397 38.794C72.075 43.4009 78.7506 48.0046 85.424 52.605C85.4669 52.6339 85.4734 52.6699 85.4436 52.7128Z" fill="#EA2127"/>
<path d="M32.133 56.7938C33.5414 59.4314 34.9433 62.0662 36.3386 64.6982C36.3442 64.7094 36.3419 64.7183 36.3316 64.7248L36.3302 64.7262C36.3143 64.7365 36.3003 64.7337 36.2882 64.7178C34.2031 61.873 32.1083 59.0198 30.0036 56.1582C29.9901 56.1403 29.9838 56.118 29.9859 56.0955C29.988 56.0731 29.9983 56.052 30.0148 56.0364C36.3428 50.3487 42.6713 44.6586 49.0002 38.9662C49.0123 38.956 49.024 38.9564 49.0352 38.9676V38.969C49.0464 38.9802 49.0464 38.9914 49.0352 39.0026C43.4035 44.8892 37.7759 50.7696 32.1526 56.644C32.1097 56.6888 32.1031 56.7388 32.133 56.7938Z" fill="#EA2127"/>
<path d="M80.9832 56.6706C75.358 50.7897 69.7225 44.9013 64.0768 39.0054C64.0656 38.9942 64.0656 38.983 64.0768 38.9718L64.0782 38.9704C64.0894 38.9583 64.1011 38.9578 64.1132 38.969C70.4477 44.6633 76.772 50.3496 83.086 56.028C83.1059 56.0461 83.1185 56.0709 83.1214 56.0975C83.1242 56.1241 83.1171 56.1507 83.1014 56.1722L76.8168 64.7206C76.8084 64.7309 76.7991 64.7327 76.7888 64.7262L76.7552 64.7052C76.7524 64.7033 76.7519 64.701 76.7538 64.6982C78.1715 62.0746 79.5855 59.4286 80.9958 56.7602C81.0032 56.7458 81.006 56.7294 81.0037 56.7134C81.0015 56.6974 80.9943 56.6824 80.9832 56.6706Z" fill="#EA2127"/>
<path d="M34.184 41.9944L35.479 39.7838C35.4821 39.7783 35.4864 39.7735 35.4915 39.7697C35.4966 39.7659 35.5024 39.7632 35.5085 39.7618C35.5147 39.7603 35.5211 39.7602 35.5274 39.7613C35.5336 39.7624 35.5395 39.7649 35.5448 39.7684L37.8226 41.349C37.8303 41.3541 37.8363 41.3615 37.8398 41.3701C37.8432 41.3787 37.844 41.3881 37.8421 41.3972C37.8401 41.4062 37.8355 41.4145 37.8287 41.4209C37.822 41.4273 37.8135 41.4315 37.8044 41.433L34.2316 42.0644C34.2228 42.066 34.2136 42.0651 34.2054 42.0616C34.1971 42.0582 34.19 42.0524 34.1849 42.0449C34.1799 42.0375 34.1771 42.0288 34.1769 42.0198C34.1768 42.0108 34.1792 42.002 34.184 41.9944Z" fill="#EA2127"/>
<path d="M75.3006 41.3462L77.5602 39.7684C77.5657 39.7646 77.572 39.7619 77.5786 39.7606C77.5852 39.7593 77.592 39.7594 77.5985 39.7608C77.6051 39.7623 77.6113 39.7651 77.6167 39.769C77.6222 39.773 77.6268 39.778 77.6302 39.7838L78.9308 41.993C78.9354 42.001 78.9377 42.0102 78.9373 42.0194C78.9369 42.0287 78.9339 42.0377 78.9286 42.0453C78.9233 42.0529 78.916 42.0589 78.9075 42.0625C78.8989 42.0661 78.8895 42.0673 78.8804 42.0658L75.3202 41.4344C75.3107 41.4326 75.3019 41.4282 75.295 41.4215C75.288 41.4148 75.2832 41.4062 75.2811 41.3968C75.279 41.3874 75.2797 41.3775 75.2832 41.3685C75.2867 41.3595 75.2927 41.3517 75.3006 41.3462Z" fill="#EA2127"/>
<path d="M32.0546 45.339L33.5134 42.966C33.5423 42.9194 33.5834 42.8904 33.6366 42.8792L38.7802 41.7718C38.9725 41.7298 38.9818 41.755 38.8082 41.8474L32.1078 45.3964C32.021 45.4422 32.0033 45.423 32.0546 45.339Z" fill="#EA2127"/>
<path d="M80.99 45.3894L74.3498 41.8698C74.1454 41.7615 74.1561 41.7321 74.382 41.7816L79.5102 42.8862C79.5398 42.8934 79.5655 42.912 79.5816 42.938L81.0516 45.325C81.1104 45.4211 81.0898 45.4426 80.99 45.3894Z" fill="#EA2127"/>
<path d="M46.5922 48.2678L44.971 45.423C44.9668 45.4155 44.9649 45.4071 44.9654 45.3985C44.9659 45.39 44.9688 45.3818 44.9738 45.3749C44.9788 45.368 44.9857 45.3627 44.9936 45.3595C45.0016 45.3564 45.0102 45.3556 45.0186 45.3572L50.102 46.3092C50.1119 46.3113 50.1208 46.3168 50.1272 46.3246L53.0742 49.8008C53.0786 49.8059 53.0817 49.812 53.0834 49.8186C53.0851 49.8251 53.0853 49.832 53.084 49.8386L52.4204 53.1006C52.4181 53.1103 52.4126 53.1189 52.4049 53.1251C52.3971 53.1314 52.3875 53.1348 52.3775 53.135C52.3676 53.1352 52.3579 53.132 52.3499 53.126C52.342 53.12 52.3362 53.1116 52.3336 53.102L51.4194 49.1498C51.4176 49.141 51.4131 49.1329 51.4066 49.1267C51.4001 49.1204 51.3919 49.1163 51.383 49.1148L46.623 48.2902C46.6165 48.2889 46.6104 48.2863 46.6051 48.2824C46.5998 48.2786 46.5954 48.2736 46.5922 48.2678Z" fill="#EA2127"/>
<path d="M61.6884 49.1988C61.3972 50.4299 61.1135 51.6348 60.8372 52.8136C60.8139 52.9125 60.8031 53.0133 60.805 53.116C60.8059 53.1711 60.7863 53.1795 60.7462 53.1412C60.7117 53.1095 60.6897 53.0703 60.6804 53.0236C60.4648 51.9671 60.2497 50.9245 60.035 49.896C60.0247 49.8484 60.0355 49.8055 60.0672 49.7672L62.954 46.361C62.9829 46.3274 63.0184 46.3069 63.0604 46.2994L68.1004 45.3572C68.1081 45.3556 68.1161 45.3562 68.1234 45.3591C68.1307 45.3619 68.1371 45.3668 68.1417 45.3732C68.1463 45.3796 68.1489 45.3871 68.1493 45.395C68.1497 45.4028 68.1478 45.4106 68.1438 45.4174L66.552 48.2146C66.5249 48.2631 66.4843 48.2921 66.4302 48.3014L61.7892 49.1036C61.7351 49.1129 61.7015 49.1447 61.6884 49.1988Z" fill="#EA2127"/>
<path d="M70.5688 51.6598L70.3252 46.3888C70.3243 46.3552 70.3374 46.3482 70.3644 46.3678C70.3766 46.3762 70.385 46.3874 70.3896 46.4014C71.0402 48.5658 71.686 50.6877 72.3272 52.7672C72.3394 52.8082 72.3314 52.8446 72.3034 52.8764L65.2292 61.1308C65.2233 61.1381 65.2155 61.1438 65.2066 61.1471C65.1977 61.1505 65.1881 61.1514 65.1786 61.1499C65.1692 61.1483 65.1602 61.1443 65.1527 61.1383C65.1451 61.1322 65.1392 61.1243 65.1354 61.1154L64.2338 58.8614C64.2161 58.8166 64.2236 58.7755 64.2562 58.7382L70.5226 51.7886C70.5562 51.7522 70.5716 51.7092 70.5688 51.6598Z" fill="#EA2127"/>
<path d="M42.6078 51.8084L48.8658 58.7496C48.8938 58.7813 48.898 58.8159 48.8784 58.8532L47.6254 61.236C47.5937 61.2957 47.5563 61.299 47.5134 61.2458L40.8214 52.8962C40.7878 52.8542 40.7789 52.8075 40.7948 52.7562L42.654 46.6466C42.7492 46.3321 42.7893 46.3391 42.7744 46.6676L42.5462 51.6362C42.5434 51.7025 42.5639 51.7599 42.6078 51.8084Z" fill="#EA2127"/>
<path d="M35.01 58.3842C36.1533 61.4147 37.299 64.4499 38.447 67.4898C38.4517 67.5029 38.4475 67.5122 38.4344 67.5178C38.4185 67.5253 38.4069 67.5211 38.3994 67.5052C36.7194 64.0528 35.0161 60.5612 33.2894 57.0304C33.2698 56.9893 33.2759 56.952 33.3076 56.9184L40.8032 49.0154C40.8779 48.937 40.8984 48.9491 40.8648 49.0518C40.4485 50.3295 40.0416 51.6031 39.644 52.8724C39.5759 53.0871 39.4648 53.2812 39.3108 53.4548C37.8753 55.0657 36.4478 56.6762 35.0282 58.2862C35.003 58.3151 34.9969 58.3478 35.01 58.3842Z" fill="#EA2127"/>
<path d="M78.0614 58.2596C76.6278 56.6356 75.1993 55.0228 73.776 53.4212C73.6444 53.2728 73.5459 53.0964 73.4806 52.892C73.0587 51.5713 72.6485 50.2917 72.25 49.0532C72.2164 48.9505 72.2369 48.9384 72.3116 49.0168L79.7736 56.8834C79.8249 56.9385 79.8343 57.0001 79.8016 57.0682C78.3176 60.1127 76.8308 63.1661 75.3412 66.2284C75.1321 66.6605 74.9473 67.025 74.7868 67.3218C74.6599 67.5579 74.644 67.5505 74.7392 67.2994L78.0908 58.415C78.1122 58.3571 78.1025 58.3053 78.0614 58.2596Z" fill="#EA2127"/>
<path d="M38.4316 61.096C38.4045 61.1277 38.3957 61.1641 38.405 61.2052C39.1199 64.1499 39.8209 67.0703 40.5078 69.9664C40.5106 69.9786 40.5064 69.9865 40.4952 69.9902H40.4938C40.4779 69.9949 40.4667 69.9893 40.4602 69.9734C38.9594 66.1888 37.4633 62.4284 35.9718 58.6922C35.9391 58.6101 35.9522 58.5363 36.011 58.471L40.0976 53.977C40.1396 53.9303 40.1793 53.9322 40.2166 53.9826L42.2452 56.714C42.2539 56.726 42.2583 56.7406 42.2575 56.7554C42.2568 56.7702 42.2509 56.7842 42.241 56.7952L38.4316 61.096Z" fill="#EA2127"/>
<path d="M70.843 56.7434L72.9402 53.928C72.9416 53.9259 72.9436 53.9241 72.9458 53.9229C72.9481 53.9216 72.9506 53.9209 72.9531 53.9207C72.9557 53.9206 72.9583 53.9211 72.9606 53.9221C72.963 53.9231 72.9651 53.9246 72.9668 53.9266L77.1822 58.5564C77.1844 58.5588 77.1858 58.5618 77.1863 58.5651C77.1868 58.5683 77.1863 58.5716 77.185 58.5746L72.6518 69.9636C72.6502 69.9676 72.6472 69.9709 72.6432 69.9727C72.6393 69.9745 72.6349 69.9748 72.6308 69.9734L72.6168 69.9692C72.6131 69.9676 72.61 69.9648 72.6082 69.9612C72.6064 69.9576 72.606 69.9535 72.607 69.9496L74.7196 61.1464C74.7202 61.1437 74.7202 61.1408 74.7194 61.1382C74.7187 61.1355 74.7173 61.133 74.7154 61.131L70.843 56.7644C70.8406 56.7614 70.8393 56.7577 70.8393 56.7539C70.8393 56.7501 70.8406 56.7464 70.843 56.7434Z" fill="#EA2127"/>
<path d="M56.5098 62.86L55.0524 66.1262C55.0394 66.1553 55.0197 66.1811 54.995 66.2015C54.9702 66.2219 54.941 66.2364 54.9096 66.2438L51.53 67.0474C51.4815 67.0595 51.446 67.0427 51.4236 66.997L50.5178 65.156C50.4963 65.1103 50.5103 65.0832 50.5598 65.0748L53.5656 64.5302C53.644 64.5162 53.7159 64.4873 53.7812 64.4434L56.423 62.6808C56.4279 62.6776 56.432 62.6734 56.4353 62.6685C56.4385 62.6636 56.4407 62.6581 56.4417 62.6524C56.4428 62.6466 56.4426 62.6407 56.4414 62.635C56.4401 62.6293 56.4376 62.6239 56.4342 62.6192L54.8046 60.4184C54.7523 60.3484 54.6861 60.2966 54.6058 60.263L52.4764 59.3726C52.4241 59.3502 52.3938 59.311 52.3854 59.255L52.0788 57.2656C52.0695 57.204 52.0956 57.1769 52.1572 57.1844L55.4612 57.5792C55.5172 57.5857 55.5615 57.6119 55.5942 57.6576L56.5084 58.9498C56.514 58.9576 56.5213 58.964 56.5298 58.9684C56.5384 58.9727 56.5478 58.975 56.5574 58.975C56.567 58.975 56.5764 58.9727 56.585 58.9684C56.5935 58.964 56.6008 58.9576 56.6064 58.9498L57.5192 57.6562C57.55 57.6123 57.592 57.5871 57.6452 57.5806L60.9786 57.1816C60.9869 57.1804 60.9954 57.1811 61.0034 57.1838C61.0113 57.1865 61.0185 57.191 61.0244 57.197C61.0303 57.2031 61.0347 57.2104 61.0372 57.2184C61.0397 57.2264 61.0402 57.2349 61.0388 57.2432L60.7294 59.2536C60.7201 59.3105 60.6888 59.3502 60.6356 59.3726L58.46 60.2826C58.4124 60.3022 58.3737 60.3325 58.3438 60.3736L56.6806 62.6164C56.6772 62.621 56.6748 62.6263 56.6735 62.6319C56.6722 62.6375 56.6721 62.6433 56.6732 62.6489C56.6742 62.6546 56.6764 62.6599 56.6796 62.6647C56.6828 62.6694 56.687 62.6735 56.6918 62.6766C57.4805 63.1983 58.3167 63.7579 59.2006 64.3552C59.3593 64.4625 59.5333 64.533 59.7228 64.5666C60.6701 64.7337 61.6095 64.9012 62.541 65.0692C62.597 65.0795 62.6124 65.1098 62.5872 65.1602L61.6884 67.0096C61.6697 67.0479 61.6399 67.0623 61.5988 67.053L58.2206 66.248C58.1844 66.2393 58.1507 66.2224 58.1221 66.1986C58.0934 66.1748 58.0706 66.1448 58.0554 66.1108L56.6022 62.86C56.5714 62.7909 56.5406 62.7909 56.5098 62.86Z" fill="#EA2127"/>
<path d="M41.072 64.0262C41.38 66.3754 41.6889 68.7241 41.9988 71.0724C42.0007 71.0855 41.9951 71.0934 41.982 71.0962H41.9806C41.9675 71.099 41.9591 71.0939 41.9554 71.0808C41.1042 67.9224 40.2558 64.7687 39.4102 61.6196C39.3971 61.5692 39.4069 61.523 39.4396 61.481L42.6302 57.4952C42.6722 57.442 42.7161 57.4406 42.7618 57.491L44.5986 59.5084C44.6114 59.5224 44.6187 59.5405 44.6192 59.5593C44.6197 59.5781 44.6134 59.5963 44.6014 59.6106L41.1182 63.8652C41.079 63.9119 41.0636 63.9655 41.072 64.0262Z" fill="#EA2127"/>
<path d="M72.0204 63.8946L68.5162 59.6176C68.4845 59.5784 68.4854 59.5401 68.519 59.5028L70.3768 57.463C70.382 57.4573 70.3883 57.4528 70.3953 57.4497C70.4024 57.4467 70.4099 57.4452 70.4175 57.4453C70.4251 57.4455 70.4325 57.4472 70.4393 57.4505C70.446 57.4538 70.4519 57.4585 70.4566 57.4644L73.6752 61.4838C73.6904 61.5029 73.701 61.5253 73.7061 61.5494C73.7112 61.5734 73.7107 61.5984 73.7046 61.6224C72.8739 64.7061 72.0297 67.844 71.172 71.036C71.1673 71.0537 71.1561 71.0607 71.1384 71.057H71.137C71.1239 71.0542 71.1183 71.0463 71.1202 71.0332C71.4301 68.6831 71.739 66.3348 72.047 63.9884C72.0492 63.9716 72.048 63.9546 72.0434 63.9385C72.0388 63.9223 72.031 63.9074 72.0204 63.8946Z" fill="#EA2127"/>
<path d="M43.3218 66.01C43.4973 68.2621 43.6718 70.4722 43.8454 72.6404C43.8641 72.869 43.8659 73.1122 43.851 73.3698C43.8463 73.4631 43.8314 73.4645 43.8062 73.374C43.7726 73.2536 43.7754 73.1094 43.7446 72.9834C43.0773 70.1871 42.4109 67.3913 41.7454 64.596C41.7342 64.5512 41.7431 64.511 41.772 64.4756L45.1082 60.3582C45.1418 60.3171 45.1759 60.3166 45.2104 60.3568L46.2492 61.565C46.2617 61.5799 46.2691 61.5985 46.2701 61.6179C46.2711 61.6374 46.2657 61.6566 46.2548 61.6728L43.3638 65.8546C43.3321 65.9012 43.3181 65.953 43.3218 66.01Z" fill="#EA2127"/>
<path d="M69.7566 65.8658L66.8726 61.6924C66.839 61.6429 66.8413 61.5958 66.8796 61.551L67.91 60.3484C67.9153 60.3421 67.9221 60.337 67.9296 60.3335C67.9372 60.3301 67.9454 60.3284 67.9537 60.3285C67.962 60.3286 67.9702 60.3306 67.9777 60.3343C67.9851 60.338 67.9916 60.3433 67.9968 60.3498L71.3526 64.4896C71.363 64.5022 71.3703 64.5171 71.374 64.5332C71.3776 64.5492 71.3775 64.5659 71.3736 64.582C70.6643 67.5472 69.9559 70.5175 69.2484 73.493C69.2447 73.5079 69.2358 73.514 69.2218 73.5112H69.2204C69.2092 73.5093 69.2041 73.5033 69.205 73.493C69.3982 70.987 69.5947 68.4917 69.7944 66.0072C69.7981 65.9559 69.7855 65.9087 69.7566 65.8658Z" fill="#EA2127"/>
<path d="M47.7024 67.417L50.5794 70.0406C50.7801 70.2235 50.7586 70.2557 50.515 70.1372L44.0918 67.0166C44.0835 67.0126 44.076 67.007 44.07 67C44.064 66.993 44.0595 66.9848 44.0569 66.9759C44.0542 66.9671 44.0535 66.9578 44.0547 66.9486C44.0559 66.9395 44.059 66.9307 44.0638 66.9228L46.8512 62.2986C46.8839 62.2444 46.9189 62.2426 46.9562 62.293L48.0552 63.7728C48.086 63.8138 48.0981 63.8596 48.0916 63.91L47.6436 67.256C47.6352 67.3204 47.6548 67.374 47.7024 67.417Z" fill="#EA2127"/>
<path d="M65.3998 67.4254C65.4257 67.4021 65.4455 67.3729 65.4575 67.3402C65.4694 67.3074 65.4732 67.2723 65.4684 67.2378L65.0204 63.9072C65.0139 63.8596 65.0246 63.8171 65.0526 63.7798L66.153 62.2958C66.1931 62.2417 66.2305 62.2431 66.265 62.3L69.0454 66.9186C69.0505 66.9271 69.0538 66.9365 69.0551 66.9462C69.0563 66.956 69.0556 66.966 69.0528 66.9754C69.05 66.9849 69.0453 66.9937 69.039 67.0013C69.0327 67.0088 69.0248 67.015 69.016 67.0194L62.5004 70.1848C62.3221 70.2716 62.3063 70.2483 62.4528 70.1148L65.3998 67.4254Z" fill="#EA2127"/>
<path d="M53.0574 69.3448C53.0705 69.3401 53.0831 69.3345 53.0952 69.328C53.112 69.3187 53.1297 69.3135 53.1484 69.3126C53.9492 69.2837 54.7192 69.2473 55.4584 69.2034C56.9844 69.1138 58.5314 69.2566 60.0784 69.3224C60.1232 69.3243 60.1587 69.307 60.1848 69.2706L61.4602 67.5094C61.5386 67.4011 61.5713 67.4137 61.5582 67.5472L61.232 70.8708C61.2299 70.8921 61.2222 70.9126 61.2097 70.9303C61.1972 70.9479 61.1803 70.9622 61.1606 70.9716L56.6246 73.0814C56.5789 73.1029 56.5331 73.1029 56.4874 73.0814L51.9514 70.9702C51.9103 70.9506 51.8879 70.9189 51.8842 70.875L51.5468 67.4716C51.5384 67.3848 51.5599 67.3769 51.6112 67.4478L52.9566 69.3112C52.9675 69.3267 52.9832 69.3383 53.0013 69.3443C53.0194 69.3504 53.039 69.3505 53.0574 69.3448Z" fill="#EA2127"/>
<path d="M44.4443 72.027L44.1433 68.2162C44.1425 68.2064 44.1442 68.1965 44.1485 68.1877C44.1527 68.1788 44.1593 68.1713 44.1674 68.1658C44.1756 68.1604 44.1851 68.1573 44.1949 68.1568C44.2047 68.1562 44.2145 68.1584 44.2231 68.163L47.1925 69.6316C47.2029 69.6368 47.2113 69.6451 47.2166 69.6554C47.2219 69.6658 47.2238 69.6775 47.2219 69.689L46.6087 73.7938C46.6073 73.8034 46.6034 73.8126 46.5972 73.8202C46.5911 73.8278 46.583 73.8336 46.5739 73.837C46.5647 73.8405 46.5548 73.8414 46.5452 73.8397C46.5356 73.838 46.5266 73.8337 46.5191 73.8274L44.4625 72.0634C44.452 72.054 44.4455 72.041 44.4443 72.027Z" fill="#EA2127"/>
<path d="M66.5058 73.8066L65.8898 69.6766C65.8886 69.6672 65.8904 69.6577 65.8949 69.6494C65.8994 69.6411 65.9065 69.6345 65.915 69.6304L68.9054 68.1618C68.9125 68.1583 68.9203 68.1568 68.9282 68.1573C68.936 68.1579 68.9436 68.1605 68.9502 68.1649C68.9567 68.1693 68.9619 68.1753 68.9654 68.1824C68.9688 68.1895 68.9704 68.1973 68.9698 68.2052L68.6674 72.0384C68.667 72.0443 68.6654 72.05 68.6628 72.0553C68.6601 72.0606 68.6565 72.0653 68.652 72.0692L66.5786 73.8346C66.5725 73.8396 66.5651 73.843 66.5573 73.8442C66.5495 73.8455 66.5414 73.8447 66.534 73.8418C66.5266 73.839 66.5201 73.8342 66.5152 73.828C66.5102 73.8218 66.507 73.8144 66.5058 73.8066Z" fill="#EA2127"/>
<path d="M47.0906 74.2826L47.8536 70.0182C47.8548 70.0108 47.8577 70.0037 47.8621 69.9977C47.8665 69.9916 47.8723 69.9866 47.879 69.9832C47.8857 69.9798 47.8931 69.978 47.9006 69.978C47.9081 69.978 47.9155 69.9798 47.9222 69.9832L50.34 71.1928C50.3496 71.1976 50.3572 71.2054 50.3618 71.215C50.3664 71.2247 50.3676 71.2356 50.3652 71.246L49.2858 76.097C49.2839 76.1049 49.28 76.1122 49.2745 76.1181C49.269 76.1241 49.262 76.1286 49.2543 76.1311C49.2466 76.1336 49.2384 76.1341 49.2304 76.1326C49.2224 76.131 49.215 76.1274 49.2088 76.1222L47.1074 74.3274C47.1009 74.3221 47.0959 74.3151 47.093 74.3073C47.09 74.2994 47.0892 74.2909 47.0906 74.2826Z" fill="#EA2127"/>
<path d="M63.8262 76.0844L62.7454 71.2432C62.7426 71.2311 62.7439 71.2184 62.7493 71.2072C62.7546 71.196 62.7636 71.187 62.7748 71.1816L65.1856 69.9958C65.1931 69.9922 65.2014 69.9904 65.2097 69.9905C65.2181 69.9907 65.2263 69.9927 65.2337 69.9965C65.2412 70.0003 65.2476 70.0057 65.2526 70.0124C65.2576 70.0191 65.261 70.0268 65.2626 70.035L66.0214 74.2812C66.0232 74.2907 66.0225 74.3004 66.0193 74.3095C66.0161 74.3186 66.0105 74.3267 66.0032 74.333L63.9144 76.1138C63.9072 76.1198 63.8987 76.1238 63.8895 76.1256C63.8804 76.1273 63.8709 76.1267 63.8621 76.1237C63.8532 76.1208 63.8453 76.1156 63.839 76.1087C63.8327 76.1018 63.8283 76.0935 63.8262 76.0844Z" fill="#EA2127"/>
<path d="M49.9004 76.6822L51.1114 71.6296C51.113 71.6228 51.1161 71.6164 51.1205 71.611C51.1249 71.6056 51.1305 71.6012 51.1368 71.5982C51.1431 71.5953 51.1501 71.5938 51.1571 71.5939C51.1641 71.594 51.171 71.5957 51.1772 71.5988L54.2236 73.1038C54.2331 73.1086 54.2406 73.1165 54.2449 73.1262C54.2493 73.1359 54.2501 73.1468 54.2474 73.157L52.678 79.0006C52.676 79.0083 52.672 79.0153 52.6665 79.0209C52.661 79.0266 52.6541 79.0308 52.6465 79.033C52.6389 79.0353 52.6309 79.0355 52.6231 79.0338C52.6154 79.032 52.6083 79.0283 52.6024 79.023L49.9144 76.7284C49.908 76.7228 49.9034 76.7154 49.9009 76.7073C49.8984 76.6991 49.8982 76.6905 49.9004 76.6822Z" fill="#EA2127"/>
<path d="M60.4354 79.002L58.8674 73.1612C58.8646 73.151 58.8655 73.1401 58.8698 73.1304C58.8742 73.1207 58.8817 73.1128 58.8912 73.108L61.9348 71.5946C61.941 71.5915 61.9479 71.5898 61.9549 71.5897C61.9619 71.5896 61.9688 71.5911 61.9752 71.594C61.9815 71.597 61.9871 71.6014 61.9915 71.6068C61.9959 71.6122 61.999 71.6186 62.0006 71.6254L63.213 76.6794C63.2151 76.6877 63.215 76.6963 63.2125 76.7045C63.21 76.7126 63.2054 76.7199 63.199 76.7256L60.511 79.0258C60.505 79.0311 60.4978 79.0348 60.49 79.0364C60.4822 79.0381 60.4741 79.0377 60.4664 79.0353C60.4588 79.0329 60.452 79.0286 60.4465 79.0228C60.4411 79.0169 60.4372 79.0098 60.4354 79.002Z" fill="#EA2127"/>
<path d="M56.5826 74.2504L58.411 73.3348C58.4173 73.3316 58.4243 73.33 58.4314 73.33C58.4385 73.3299 58.4455 73.3315 58.4518 73.3347C58.4582 73.3378 58.4637 73.3423 58.4681 73.3479C58.4724 73.3535 58.4754 73.36 58.4768 73.367L59.8068 79.597C59.8085 79.6051 59.808 79.6136 59.8053 79.6215C59.8026 79.6294 59.7978 79.6364 59.7914 79.6418L56.5854 82.3802C56.5771 82.387 56.5667 82.3907 56.556 82.3907C56.5453 82.3907 56.5349 82.387 56.5266 82.3802L53.3234 79.639C53.317 79.6336 53.3122 79.6266 53.3095 79.6187C53.3068 79.6108 53.3063 79.6023 53.308 79.5942L54.6338 73.3726C54.6354 73.3658 54.6385 73.3594 54.6429 73.354C54.6473 73.3485 54.6529 73.3441 54.6592 73.3412C54.6655 73.3382 54.6725 73.3367 54.6795 73.3368C54.6865 73.3369 54.6933 73.3386 54.6996 73.3418L56.5406 74.2504C56.5471 74.2537 56.5543 74.2554 56.5616 74.2554C56.5689 74.2554 56.5761 74.2537 56.5826 74.2504Z" fill="#EA2127"/>
</svg>
